<svg xmlns="http://www.w3.org/2000/svg" xmlns:xlink="http://www.w3.org/1999/xlink" viewBox="0 0 2807.8 3173.68"><defs><style>.cls-1{fill:none;}.cls-2{fill:url(#linear-gradient);}.cls-3{opacity:0.3;}.cls-4{fill:#b17170;}.cls-5{fill:url(#linear-gradient-2);}.cls-6{fill:url(#linear-gradient-3);}.cls-7{fill:url(#linear-gradient-4);}.cls-8{fill:url(#linear-gradient-5);}.cls-9{fill:url(#linear-gradient-6);}.cls-10{fill:#70b1a7;}.cls-11{fill:url(#linear-gradient-7);}.cls-12{fill:url(#linear-gradient-8);}.cls-13{fill:url(#linear-gradient-9);}.cls-14{fill:url(#linear-gradient-10);}.cls-15{fill:#91c3bb;}.cls-16{fill:url(#linear-gradient-11);}.cls-17,.cls-42,.cls-43{fill:#fff;}.cls-17{opacity:0.47;}.cls-18{fill:url(#linear-gradient-12);}.cls-19{fill:url(#linear-gradient-13);}.cls-20{fill:url(#linear-gradient-14);}.cls-21{fill:url(#linear-gradient-15);}.cls-22{fill:url(#linear-gradient-16);}.cls-23{fill:url(#linear-gradient-17);}.cls-24{fill:url(#linear-gradient-18);}.cls-25{fill:url(#linear-gradient-19);}.cls-26{fill:url(#linear-gradient-20);}.cls-27{fill:url(#linear-gradient-21);}.cls-28{fill:url(#linear-gradient-22);}.cls-29{fill:url(#linear-gradient-23);}.cls-30{fill:url(#linear-gradient-24);}.cls-31{fill:url(#linear-gradient-25);}.cls-32{fill:url(#linear-gradient-26);}.cls-33{fill:url(#linear-gradient-27);}.cls-34{fill:url(#linear-gradient-28);}.cls-35{fill:url(#linear-gradient-29);}.cls-36{fill:url(#linear-gradient-30);}.cls-37{fill:url(#linear-gradient-31);}.cls-38{fill:url(#linear-gradient-32);}.cls-39{fill:url(#linear-gradient-33);}.cls-40{fill:url(#linear-gradient-34);}.cls-41{fill:url(#linear-gradient-35);}.cls-43{opacity:0.5;}.cls-44{fill:url(#linear-gradient-36);}.cls-45{fill:url(#linear-gradient-37);}.cls-46{fill:url(#linear-gradient-38);}.cls-47{clip-path:url(#clip-path);}.cls-48{fill:url(#linear-gradient-39);}.cls-49{fill:url(#linear-gradient-40);}.cls-50{fill:url(#linear-gradient-41);}.cls-51{fill:url(#linear-gradient-42);}.cls-52{fill:url(#linear-gradient-43);}.cls-53{fill:url(#linear-gradient-44);}.cls-54{fill:url(#linear-gradient-45);}.cls-55{fill:url(#linear-gradient-46);}.cls-56{fill:url(#linear-gradient-47);}.cls-57{fill:url(#linear-gradient-48);}.cls-58{fill:url(#linear-gradient-49);}.cls-59{fill:url(#linear-gradient-50);}.cls-60{fill:url(#linear-gradient-51);}.cls-61{fill:url(#linear-gradient-52);}.cls-62{fill:url(#linear-gradient-53);}.cls-63{fill:url(#linear-gradient-54);}.cls-64{fill:url(#linear-gradient-55);}</style><linearGradient id="linear-gradient" x1="3023.72" y1="3189.06" x2="1078.02" y2="1117.83" gradientUnits="userSpaceOnUse"><stop offset="0" stop-color="#d2adac"/><stop offset="1" stop-color="#e5cfce"/></linearGradient><linearGradient id="linear-gradient-2" x1="1288.66" y1="567.44" x2="1424.54" y2="567.44" xlink:href="#linear-gradient"/><linearGradient id="linear-gradient-3" x1="1201.24" y1="567.68" x2="1525.16" y2="567.68" xlink:href="#linear-gradient"/><linearGradient id="linear-gradient-4" x1="832.03" y1="342.17" x2="924.58" y2="342.17" xlink:href="#linear-gradient"/><linearGradient id="linear-gradient-5" x1="770.91" y1="342.24" x2="994.59" y2="342.24" xlink:href="#linear-gradient"/><linearGradient id="linear-gradient-6" x1="1162.2" y1="2133.35" x2="1721.91" y2="454.24" gradientUnits="userSpaceOnUse"><stop offset="0" stop-color="#253b19"/><stop offset="1" stop-color="#364a2c"/></linearGradient><linearGradient id="linear-gradient-7" x1="363.58" y1="1408.38" x2="2395.14" y2="1408.38" gradientUnits="userSpaceOnUse"><stop offset="0" stop-color="#8afecc"/><stop offset="1" stop-color="#7dfec6"/></linearGradient><linearGradient id="linear-gradient-8" x1="1298.21" y1="2862.49" x2="1509.13" y2="1709.25" xlink:href="#linear-gradient-6"/><linearGradient id="linear-gradient-9" x1="326.22" y1="2002.65" x2="1507.23" y2="2002.65" gradientUnits="userSpaceOnUse"><stop offset="0" stop-color="#febbba"/><stop offset="1" stop-color="#ff9795"/></linearGradient><linearGradient id="linear-gradient-10" x1="1519.6" y1="1971.88" x2="1400.03" y2="2425.4" gradientUnits="userSpaceOnUse"><stop offset="0" stop-color="#fed4d4"/><stop offset="1" stop-color="#febbba"/></linearGradient><linearGradient id="linear-gradient-11" x1="1740.22" y1="3685.12" x2="2247.62" y2="1946.79" xlink:href="#linear-gradient-7"/><linearGradient id="linear-gradient-12" x1="1480.46" y1="2419.83" x2="2725.19" y2="2419.83" xlink:href="#linear-gradient"/><linearGradient id="linear-gradient-13" x1="1480.46" y1="2459.06" x2="2725.19" y2="2459.06" xlink:href="#linear-gradient"/><linearGradient id="linear-gradient-14" x1="1480.46" y1="2498.29" x2="2725.19" y2="2498.29" xlink:href="#linear-gradient"/><linearGradient id="linear-gradient-15" x1="1480.46" y1="2537.51" x2="2725.19" y2="2537.51" xlink:href="#linear-gradient"/><linearGradient id="linear-gradient-16" x1="1480.46" y1="2576.73" x2="2725.19" y2="2576.73" xlink:href="#linear-gradient"/><linearGradient id="linear-gradient-17" x1="2865.38" y1="1014.03" x2="2553.57" y2="1623.77" gradientTransform="translate(4539.36 4357.88) rotate(-180)" xlink:href="#linear-gradient-7"/><linearGradient id="linear-gradient-18" x1="10630.99" y1="1963.88" x2="10256.58" y2="2177.59" gradientTransform="matrix(-1, 0, 0, 1, 12424.28, 0)" xlink:href="#linear-gradient-10"/><linearGradient id="linear-gradient-19" x1="1749.59" y1="1886.54" x2="2094.12" y2="2874.54" xlink:href="#linear-gradient-6"/><linearGradient id="linear-gradient-20" x1="10594.77" y1="2017.18" x2="11875.8" y2="1215.23" gradientTransform="matrix(-1, 0, 0, 1, 12424.28, 0)" xlink:href="#linear-gradient-10"/><linearGradient id="linear-gradient-21" x1="1803.05" y1="1867.89" x2="2147.58" y2="2855.89" xlink:href="#linear-gradient-6"/><linearGradient id="linear-gradient-22" x1="-4385.97" y1="13379.5" x2="-4036.37" y2="12776.57" gradientTransform="matrix(-1, 0, 0, 1, 4592.58, 0)" xlink:href="#linear-gradient-6"/><linearGradient id="linear-gradient-23" x1="-4899.94" y1="1589.63" x2="-4807.88" y2="1820.58" gradientTransform="translate(6315.33 -1872.48) rotate(-19.17)" xlink:href="#linear-gradient-6"/><linearGradient id="linear-gradient-24" x1="2971.93" y1="1047.89" x2="2519.28" y2="1561.34" xlink:href="#linear-gradient-9"/><linearGradient id="linear-gradient-25" x1="-2480.96" y1="1840.7" x2="-2108" y2="1840.7" gradientTransform="translate(4930.01)" xlink:href="#linear-gradient-10"/><linearGradient id="linear-gradient-26" x1="-4433.13" y1="1276.42" x2="-4414.9" y2="1143.04" gradientTransform="translate(6627.33 71.48) rotate(-4.11)" xlink:href="#linear-gradient-10"/><linearGradient id="linear-gradient-27" x1="-6523.37" y1="1810.65" x2="-6351.7" y2="1505.14" gradientTransform="translate(4353.25 -4905.41) rotate(-56.92)" xlink:href="#linear-gradient-10"/><linearGradient id="linear-gradient-28" x1="-6486.45" y1="1544.6" x2="-6400.62" y2="1759.91" gradientTransform="translate(4353.25 -4905.41) rotate(-56.92)" xlink:href="#linear-gradient-6"/><linearGradient id="linear-gradient-29" x1="-6486.82" y1="1831.18" x2="-6315.16" y2="1525.68" gradientTransform="translate(4353.25 -4905.41) rotate(-56.92)" xlink:href="#linear-gradient-10"/><linearGradient id="linear-gradient-30" x1="-2570.01" y1="1789.44" x2="-2765.12" y2="1842.92" gradientTransform="translate(4910.48 -77.86) rotate(-2.83)" xlink:href="#linear-gradient-7"/><linearGradient id="linear-gradient-31" x1="8546.66" y1="1804.99" x2="10301.46" y2="1657.35" gradientTransform="translate(-6621.1)" xlink:href="#linear-gradient-6"/><linearGradient id="linear-gradient-32" x1="-2845.83" y1="1746.78" x2="-2908.64" y2="1841.37" gradientTransform="translate(4930.01)" xlink:href="#linear-gradient-7"/><linearGradient id="linear-gradient-33" x1="2727.37" y1="-38.83" x2="2389.57" y2="596.23" xlink:href="#linear-gradient-9"/><linearGradient id="linear-gradient-34" x1="2348.16" y1="788.49" x2="2422.47" y2="248.02" xlink:href="#linear-gradient-9"/><linearGradient id="linear-gradient-35" x1="3024.26" y1="81.36" x2="2666.2" y2="655.61" xlink:href="#linear-gradient-9"/><linearGradient id="linear-gradient-36" x1="423.46" y1="-567.54" x2="423.46" y2="-0.04" xlink:href="#linear-gradient"/><linearGradient id="linear-gradient-37" x1="423.46" y1="-567.53" x2="423.46" y2="-0.04" xlink:href="#linear-gradient"/><linearGradient id="linear-gradient-38" x1="506.51" y1="744.05" x2="1637.69" y2="1431.98" gradientUnits="userSpaceOnUse"><stop offset="0" stop-color="#ff706e"/><stop offset="1" stop-color="#ff8684"/></linearGradient><clipPath id="clip-path"><rect class="cls-1" x="483.77" y="572.09" width="1318.61" height="1378.3"/></clipPath><linearGradient id="linear-gradient-39" x1="758.47" y1="1085.02" x2="559.23" y2="806.77" xlink:href="#linear-gradient-10"/><linearGradient id="linear-gradient-40" x1="756.33" y1="762.67" x2="361.28" y2="1277.95" xlink:href="#linear-gradient-10"/><linearGradient id="linear-gradient-41" x1="2133.24" y1="2970.36" x2="1334.65" y2="3839" gradientTransform="matrix(-1, 0, 0, 1, 3154.76, 0)" xlink:href="#linear-gradient-6"/><linearGradient id="linear-gradient-42" x1="1874.03" y1="3034.87" x2="1944.97" y2="3034.87" gradientTransform="matrix(-1, 0, 0, 1, 3154.76, 0)" xlink:href="#linear-gradient-10"/><linearGradient id="linear-gradient-43" x1="2196.12" y1="1988.02" x2="1516.6" y2="2909.02" gradientTransform="matrix(-1, 0, 0, 1, 3154.76, 0)" xlink:href="#linear-gradient-6"/><linearGradient id="linear-gradient-44" x1="1954.09" y1="2805.66" x2="1155.51" y2="3674.29" gradientTransform="matrix(-1, 0, 0, 1, 3154.76, 0)" xlink:href="#linear-gradient-6"/><linearGradient id="linear-gradient-45" x1="1618.38" y1="3031.23" x2="1679.63" y2="3031.23" gradientTransform="matrix(-1, 0, 0, 1, 3154.76, 0)" xlink:href="#linear-gradient-10"/><linearGradient id="linear-gradient-46" x1="2075.01" y1="1898.66" x2="1395.49" y2="2819.67" gradientTransform="matrix(-1, 0, 0, 1, 3154.76, 0)" xlink:href="#linear-gradient-6"/><linearGradient id="linear-gradient-47" x1="22858.77" y1="6245.4" x2="21708.63" y2="5992.06" gradientTransform="matrix(-1, 0, 0, 1, 3154.76, 0)" xlink:href="#linear-gradient-9"/><linearGradient id="linear-gradient-48" x1="1600.65" y1="762.06" x2="1725.8" y2="1119.64" gradientTransform="translate(-918.32)" xlink:href="#linear-gradient-10"/><linearGradient id="linear-gradient-49" x1="22876.99" y1="6162.59" x2="21726.86" y2="5909.26" gradientTransform="matrix(-1, 0, 0, 1, 3154.76, 0)" xlink:href="#linear-gradient-9"/><linearGradient id="linear-gradient-50" x1="1720.77" y1="1833.41" x2="1254.64" y2="1083.55" xlink:href="#linear-gradient-10"/><linearGradient id="linear-gradient-51" x1="-4049.65" y1="-516.85" x2="-4117.41" y2="-740.33" gradientTransform="matrix(-0.75, -0.67, -0.67, 0.75, -2159.98, -1219.13)" xlink:href="#linear-gradient-10"/><linearGradient id="linear-gradient-52" x1="-4110.78" y1="-906.23" x2="-4054.1" y2="-582.95" gradientTransform="matrix(-0.75, -0.67, -0.67, 0.75, -2159.98, -1219.13)" xlink:href="#linear-gradient-6"/><linearGradient id="linear-gradient-53" x1="-4118.92" y1="-517.89" x2="-4179.88" y2="-718.95" gradientTransform="matrix(-0.75, -0.67, -0.67, 0.75, -2159.98, -1219.13)" xlink:href="#linear-gradient-10"/><linearGradient id="linear-gradient-54" x1="-4525.42" y1="2540.5" x2="-4672.83" y2="1481.84" gradientTransform="matrix(-1, 0, 0, 1, -2943.92, 0)" xlink:href="#linear-gradient-10"/><linearGradient id="linear-gradient-55" x1="-4542.97" y1="2438.66" x2="-4660.6" y2="1593.85" gradientTransform="matrix(-1, 0, 0, 1, -2943.92, 0)" xlink:href="#linear-gradient-10"/></defs><g id="Layer_2" data-name="Layer 2"><g id="Illustration"><path class="cls-2" d="M2439.53,2358.09c-71.83,74-136.1,117.56-185.3,150.41-479.9,320.43-1028.48,228.08-1198.09,196.51-273.64-50.93-504.63-86.86-703.09-266.16C-97.91,2031.42-76,1181.5,268.62,655,309.47,592.58,653.54,82.56,1203.31,10.7c13.44-1.76,23.48-2.76,32.26-3.69,85-9,612.07-56.53,1041.81,303.5,61.51,51.54,160.5,144.49,252.3,286.27C2865.35,1115.18,2866.41,1918.07,2439.53,2358.09Z"/><g class="cls-3"><path class="cls-4" d="M1075.46,300.41a9.91,9.91,0,0,1,.82-13.22c8-7.85,16.42-15.46,25.09-22.64a9.9,9.9,0,0,1,14,1.32l.12.15a9.91,9.91,0,0,1-1.44,13.8c-8.23,6.81-16.25,14-23.83,21.5a9.91,9.91,0,0,1-14-.12A10.4,10.4,0,0,1,1075.46,300.41Zm67.93-53.26a9.7,9.7,0,0,1-.68-1,9.9,9.9,0,0,1,3.21-13.64c9.55-5.92,19.45-11.49,29.43-16.55a9.91,9.91,0,0,1,9,17.67c-9.48,4.81-18.89,10.1-28,15.73A9.9,9.9,0,0,1,1143.39,247.15Zm78-37a9.75,9.75,0,0,1-1.62-3,9.91,9.91,0,0,1,6.16-12.58c10.61-3.64,21.51-6.86,32.4-9.57a9.91,9.91,0,1,1,4.79,19.23c-10.34,2.57-20.69,5.63-30.76,9.08A9.9,9.9,0,0,1,1221.35,210.17Zm84.29-18.62a9.92,9.92,0,0,1,6.72-16c11.17-1.17,22.51-1.87,33.73-2.08a9.91,9.91,0,1,1,.38,19.81c-10.65.2-21.43.87-32,2A9.89,9.89,0,0,1,1305.64,191.55Zm86.33.65a9.91,9.91,0,0,1,8.92-16c11.12,1.33,22.34,3.15,33.34,5.43a9.91,9.91,0,1,1-4,19.4c-10.45-2.16-21.12-3.89-31.68-5.16A9.86,9.86,0,0,1,1392,192.2Zm84,19.72a9.91,9.91,0,0,1,11.07-15.52c10.56,3.77,21.1,8,31.31,12.68a9.91,9.91,0,0,1-8.21,18c-9.7-4.41-19.71-8.46-29.75-12A9.9,9.9,0,0,1,1476,211.92Zm244.58,269.34a10,10,0,0,1-1.85-3.76c-2.59-10.32-5.66-20.67-9.14-30.76a9.91,9.91,0,0,1,18.73-6.46c3.66,10.63,6.9,21.53,9.63,32.4a9.91,9.91,0,0,1-17.37,8.58ZM1553.51,249.74a9.91,9.91,0,0,1,13.07-14.53c9.46,6,18.78,12.52,27.69,19.33a9.91,9.91,0,0,1-12,15.75c-8.47-6.47-17.32-12.64-26.3-18.36A9.89,9.89,0,0,1,1553.51,249.74Zm136.75,150.71a10.27,10.27,0,0,1-1.08-1.68c-4.84-9.49-10.15-18.89-15.79-27.95a9.91,9.91,0,0,1,16.83-10.47c5.93,9.54,11.52,19.43,16.61,29.42a9.91,9.91,0,0,1-16.57,10.68Zm-69.63-96.51a9.91,9.91,0,0,1,14.82-13.12c7.86,8,15.49,16.4,22.67,25a1,1,0,0,1,.13.16,9.91,9.91,0,0,1-15.37,12.5c-6.82-8.21-14.07-16.21-21.54-23.78C1621.09,304.48,1620.85,304.21,1620.63,303.94Z"/><path class="cls-4" d="M1731.33,550a9.89,9.89,0,0,1-2.13-5.52c-.33-5.09-.77-10.27-1.31-15.38A9.91,9.91,0,1,1,1747.6,527c.57,5.37,1,10.81,1.38,16.18a9.91,9.91,0,0,1-17.65,6.8Z"/></g><g class="cls-3"><path class="cls-4" d="M1631.61,835.12a9.9,9.9,0,0,1,.44-12.84c3.44-3.77,6.86-7.68,10.17-11.61a9.91,9.91,0,1,1,15.17,12.74c-3.48,4.14-7.08,8.26-10.7,12.23a9.91,9.91,0,0,1-14,.64A9.06,9.06,0,0,1,1631.61,835.12Z"/><path class="cls-4" d="M1044.69,815.92q-4.26-5.35-8.37-10.88a9.91,9.91,0,1,1,15.91-11.82c6.32,8.51,13,16.75,19.85,24.57a9.91,9.91,0,1,1-14.87,13.09C1053,826,1048.74,821,1044.69,815.92ZM1008.08,761a10.48,10.48,0,0,1-.94-1.41c-5.33-9.68-10.31-19.7-14.79-29.77a9.9,9.9,0,0,1,18.09-8.07c4.27,9.57,9,19.09,14.06,28.29a9.91,9.91,0,0,1-16.42,11Zm86.19,106.54a9.91,9.91,0,0,1,14.24-13.66c7.92,6.84,16.24,13.44,24.74,19.6a9.91,9.91,0,1,1-11.64,16c-8.95-6.49-17.71-13.44-26.06-20.65A10.69,10.69,0,0,1,1094.27,867.55Zm-118.71-185a10,10,0,0,1-1.76-3.42c-3.07-10.61-5.72-21.48-7.88-32.3a9.91,9.91,0,1,1,19.43-3.88c2,10.28,4.57,20.6,7.49,30.67a9.92,9.92,0,0,1-17.28,8.93Zm188.71,233.06a9.91,9.91,0,0,1,12.42-14.92c9.22,4.93,18.79,9.53,28.44,13.68a9.91,9.91,0,0,1-7.83,18.2c-10.16-4.37-20.23-9.21-30-14.4A9.9,9.9,0,0,1,1164.27,915.58Zm78.84,31.5a9.9,9.9,0,0,1,10.39-15.72c10.11,2.8,20.46,5.2,30.76,7.15a9.91,9.91,0,0,1-3.68,19.47c-10.84-2.05-21.73-4.58-32.37-7.53A9.88,9.88,0,0,1,1243.11,947.08Zm83.83,13.57a9.91,9.91,0,0,1,8.26-16.06c10.49.53,21.11.63,31.58.28a9.91,9.91,0,0,1,.65,19.81c-11,.36-22.2.26-33.24-.3A9.88,9.88,0,0,1,1326.94,960.65Zm84.79-5a9.91,9.91,0,0,1,6.08-15.93c10.35-1.77,20.74-4,30.88-6.64a9.91,9.91,0,1,1,5,19.18c-10.68,2.77-21.62,5.13-32.51,7A9.88,9.88,0,0,1,1411.73,955.61Zm81.65-23.54a9.9,9.9,0,0,1,4-15.33c9.68-4,19.31-8.46,28.64-13.28a9.91,9.91,0,1,1,9.08,17.61c-9.81,5.07-20,9.77-30.14,14A9.91,9.91,0,0,1,1493.38,932.07Zm74.43-40.87c-.13-.16-.25-.32-.37-.49a9.91,9.91,0,0,1,2.43-13.8c6.32-4.43,12.58-9.11,18.62-13.91q3.27-2.61,6.47-5.28a9.91,9.91,0,0,1,14,1.28,9.8,9.8,0,0,1-1.28,14c-2.25,1.87-4.51,3.72-6.81,5.55-6.35,5-12.94,10-19.59,14.64A9.9,9.9,0,0,1,1567.81,891.2Z"/><path class="cls-4" d="M961.12,598.56A9.82,9.82,0,0,1,959,593c-.33-5.35-.54-10.81-.64-16.23a9.91,9.91,0,0,1,19.81-.37c.1,5.15.3,10.34.61,15.42a9.91,9.91,0,0,1-17.65,6.76Z"/></g><path class="cls-4" d="M1059.35,537.44a4.64,4.64,0,0,0,2.12,4.94l48.17,29.27a245.66,245.66,0,0,0,14.11,78.28l-34.86,44.24a4.63,4.63,0,0,0-.25,5.37l36.56,56.86a4.65,4.65,0,0,0,5,2L1184.91,745a245.59,245.59,0,0,0,65.36,45.33l6.64,56a4.64,4.64,0,0,0,3.62,4l66.06,14.35a4.63,4.63,0,0,0,4.94-2.12l29.26-48.16a245.58,245.58,0,0,0,78.28-14.12l44.25,34.86a4.63,4.63,0,0,0,5.37.26l56.86-36.56a4.64,4.64,0,0,0,2-5l-13.35-54.71a245.64,245.64,0,0,0,45.33-65.37l56-6.64a4.6,4.6,0,0,0,4-3.61l14.36-66.06a4.62,4.62,0,0,0-2.12-4.94l-48.17-29.27A245.29,245.29,0,0,0,1589.42,485l34.86-44.24a4.63,4.63,0,0,0,.26-5.37L1588,378.48a4.63,4.63,0,0,0-5-2l-54.72,13.36a245,245,0,0,0-65.36-45.33l-6.64-56a4.63,4.63,0,0,0-3.61-4l-66.06-14.35a4.62,4.62,0,0,0-4.94,2.12l-29.27,48.16a245.56,245.56,0,0,0-78.28,14.11l-44.24-34.85a4.62,4.62,0,0,0-5.37-.26l-56.87,36.56a4.62,4.62,0,0,0-2,5L1179,395.76a245.32,245.32,0,0,0-45.32,65.36l-56,6.64a4.65,4.65,0,0,0-4,3.62Z"/><path class="cls-5" d="M1303.39,609.73a68,68,0,1,1,6.77,7.33A69.57,69.57,0,0,1,1303.39,609.73Zm94-74.66a52.87,52.87,0,0,0-5.24-5.68,52,52,0,1,0,5.24,5.68Z"/><path class="cls-6" d="M1227.47,672a171.24,171.24,0,0,1-10-14h0c-1-1.52-1.94-3.07-2.87-4.62a168.63,168.63,0,0,1-11.88-24c0-.12-.09-.23-.13-.34l-.38-1c-.24-.63-.48-1.26-.71-1.88a4,4,0,0,1,1.23-4.49,3.85,3.85,0,0,1,1.08-.62,4,4,0,0,1,5.1,2.32,159.29,159.29,0,0,0,235.18,78.08,161.44,161.44,0,0,0,13.32-9.54,159.21,159.21,0,0,0,34.48-210.41c-47.49-73.85-146.14-95.26-220-47.8a161.62,161.62,0,0,0-13.14,9.42,158.81,158.81,0,0,0-43.4,53.75,3.95,3.95,0,0,1-5.31,1.8,4,4,0,0,1-1.79-5.31A166.52,166.52,0,0,1,1253.85,437a169.57,169.57,0,0,1,13.8-9.9c77.49-49.83,181.09-27.29,230.91,50.18a167.13,167.13,0,0,1-36.2,220.89,169.39,169.39,0,0,1-14,10A167.14,167.14,0,0,1,1227.47,672Z"/><g class="cls-3"><path class="cls-4" d="M660.61,198.52a6.1,6.1,0,0,1-.21-7.33c3-4.25,6.14-8.47,9.38-12.53a6.12,6.12,0,1,1,9.57,7.63c-3.08,3.87-6.09,7.89-9,11.94a6.11,6.11,0,0,1-8.52,1.49A6.31,6.31,0,0,1,660.61,198.52Z"/><path class="cls-4" d="M691.11,162.67a6.14,6.14,0,0,1,.51-8.19,268.4,268.4,0,0,1,20.18-17.81c1.48-1.18,3-2.33,4.47-3.48a6.35,6.35,0,0,1,8.59,1.15,6.14,6.14,0,0,1-1.16,8.58c-1.44,1.09-2.87,2.2-4.27,3.32a254.34,254.34,0,0,0-19.25,17,6.13,6.13,0,0,1-8.66-.09C691.38,163,691.24,162.83,691.11,162.67Zm50.53-38.52a7.11,7.11,0,0,1-.5-.72,6.13,6.13,0,0,1,2.2-8.38,266.44,266.44,0,0,1,29.06-14.7,6.12,6.12,0,0,1,4.84,11.25,252.55,252.55,0,0,0-27.72,14A6.13,6.13,0,0,1,741.64,124.15ZM800,99a6.23,6.23,0,0,1-1.09-2.11,6.13,6.13,0,0,1,4.18-7.58,265.23,265.23,0,0,1,31.81-7.1,6.12,6.12,0,0,1,1.92,12.09,251.12,251.12,0,0,0-30.33,6.77A6.13,6.13,0,0,1,800,99Zm62.75-10a6.12,6.12,0,0,1,4.59-9.92,266.09,266.09,0,0,1,32.57.89,6.12,6.12,0,0,1-1.1,12.19,253.19,253.19,0,0,0-31.05-.85A6.11,6.11,0,0,1,862.76,89.05Zm63.29,5.64a6.13,6.13,0,0,1,6.08-9.8,268.71,268.71,0,0,1,31.35,8.77,6.12,6.12,0,0,1-4,11.57,253.91,253.91,0,0,0-29.93-8.37A6.12,6.12,0,0,1,926.05,94.69Zm60,20.82a6.12,6.12,0,0,1,7.49-9.3,261.94,261.94,0,0,1,28.26,16.15,6.12,6.12,0,1,1-6.72,10.23,251.48,251.48,0,0,0-26.94-15.4A6.07,6.07,0,0,1,986.05,115.51Zm53.07,34.86a6.12,6.12,0,0,1,8.76-8.47,264.63,264.63,0,0,1,23.45,22.61,6.12,6.12,0,1,1-9,8.27,251.34,251.34,0,0,0-22.37-21.56A6.57,6.57,0,0,1,1039.12,150.37Zm59.78,73.84a5.59,5.59,0,0,1-.59-.9,254,254,0,0,0-14.14-23c-.77-1.13-1.54-2.23-2.32-3.32a6.13,6.13,0,0,1,1.42-8.54,6.06,6.06,0,0,1,8.54,1.42c.83,1.16,1.65,2.33,2.46,3.52a267.35,267.35,0,0,1,14.8,24.12,6.12,6.12,0,0,1-10.17,6.73Z"/></g><g class="cls-3"><path class="cls-4" d="M672.1,510.71a6.12,6.12,0,0,1,9.53-7.69,253.28,253.28,0,0,0,20.73,22.45,6.12,6.12,0,1,1-8.47,8.83,266,266,0,0,1-21.73-23.53Zm-18.32-25.39a5.22,5.22,0,0,1-.38-.54,267.68,267.68,0,0,1-15.52-28,6.12,6.12,0,0,1,11-5.27,256.35,256.35,0,0,0,14.8,26.76,6.12,6.12,0,0,1-10,7.09Zm63.44,68.62a6.11,6.11,0,0,1,8.44-8.71A256.59,256.59,0,0,0,751.22,562a6.12,6.12,0,1,1-6.09,10.62A266.08,266.08,0,0,1,718.35,555,5.86,5.86,0,0,1,717.22,553.94ZM626.89,428.88a6.26,6.26,0,0,1-1-1.87,261.32,261.32,0,0,1-8.28-31,6.12,6.12,0,1,1,12-2.44,251,251,0,0,0,7.9,29.53,6.12,6.12,0,0,1-10.59,5.75ZM771.44,585a6.12,6.12,0,0,1,7.16-9.46,248.59,248.59,0,0,0,28.82,10.13,6.12,6.12,0,0,1-3.35,11.78,267.42,267.42,0,0,1-30.23-10.62A6.21,6.21,0,0,1,771.44,585Zm60.08,17.13a6.12,6.12,0,0,1,5.74-9.86,255.39,255.39,0,0,0,30.43,3,6.12,6.12,0,0,1-.44,12.23,269.25,269.25,0,0,1-31.9-3.09A6.13,6.13,0,0,1,831.52,602.11ZM894,604.35a6.12,6.12,0,0,1,4.27-9.91A249.54,249.54,0,0,0,928.5,590,6.12,6.12,0,1,1,931,602a263.65,263.65,0,0,1-31.71,4.65A6.11,6.11,0,0,1,894,604.35Z"/><path class="cls-4" d="M614.41,367.34A6.17,6.17,0,0,1,613.1,364c-.4-5.22-.66-10.48-.75-15.62a6.12,6.12,0,1,1,12.24-.23c.09,4.91.33,9.92.71,14.91a6.12,6.12,0,0,1-10.89,4.28Z"/></g><path class="cls-4" d="M679.43,322.08a3.09,3.09,0,0,0,1.42,3.3L713.08,345a164.1,164.1,0,0,0,9.44,52.38L699.19,427a3.13,3.13,0,0,0-.17,3.6l24.47,38.05a3.08,3.08,0,0,0,3.34,1.33L763.44,461a164.38,164.38,0,0,0,43.74,30.33l4.44,37.45a3.11,3.11,0,0,0,2.42,2.66l44.21,9.61a3.09,3.09,0,0,0,3.3-1.42l19.59-32.23A164.38,164.38,0,0,0,933.52,498l29.6,23.32a3.1,3.1,0,0,0,3.6.17l38-24.46a3.09,3.09,0,0,0,1.33-3.34L997.17,457a164.45,164.45,0,0,0,30.33-43.74l37.45-4.44a3.09,3.09,0,0,0,2.66-2.42l9.61-44.2a3.11,3.11,0,0,0-1.42-3.31l-32.23-19.58a164.11,164.11,0,0,0-9.45-52.38l23.33-29.61a3.08,3.08,0,0,0,.17-3.59l-24.46-38a3.11,3.11,0,0,0-3.34-1.34l-36.62,8.94A164,164,0,0,0,949.46,193L945,155.53a3.12,3.12,0,0,0-2.42-2.67l-44.2-9.6a3.1,3.1,0,0,0-3.31,1.42l-19.58,32.23a164.16,164.16,0,0,0-52.39,9.44L793.52,163a3.1,3.1,0,0,0-3.59-.18l-38,24.47a3.09,3.09,0,0,0-1.34,3.34l8.94,36.61A164.31,164.31,0,0,0,729.15,271l-37.45,4.44a3.11,3.11,0,0,0-2.67,2.42Z"/><path class="cls-7" d="M842,370.91a46.31,46.31,0,0,1,2.48-60.38A46.3,46.3,0,1,1,846.7,376,47.08,47.08,0,0,1,842,370.91ZM905,321a33.44,33.44,0,0,0-3.39-3.68A34.05,34.05,0,0,0,855.06,367h0A34,34,0,0,0,905,321Z"/><path class="cls-8" d="M789.14,414.15q-3.61-4.54-6.83-9.53a116.46,116.46,0,0,1-10.64-20.94c-.12-.32-.25-.65-.37-1a6.12,6.12,0,1,1,11.45-4.3,103.7,103.7,0,0,0,9.86,19.6h0l.66,1a102.05,102.05,0,0,0,37.22,34.08,103.38,103.38,0,0,0,26,9.67l.22.06c.23,0,.46.1.68.15A102.41,102.41,0,0,0,935,429a105.11,105.11,0,0,0,8.62-6.18A103,103,0,0,0,823.55,255.61a101.14,101.14,0,0,0-8.51,6.1A102.7,102.7,0,0,0,787,296.51a6.12,6.12,0,0,1-11-5.43,115,115,0,0,1,31.43-38.94q4.58-3.63,9.52-6.82a115.27,115.27,0,1,1-27.79,168.83Z"/><path class="cls-9" d="M2607.4,2194.26a43.93,43.93,0,0,1-43.82,43.78H193.75a43.93,43.93,0,0,1-43.83-43.78L130.2,832.39c0-24.09,28.38-71.1,80.37-67.56L2526.63,704.9a110.43,110.43,0,0,1,113.32,113Z"/><path class="cls-10" d="M2564.14,2152.26a41.59,41.59,0,0,1-41.47,41.46H250.9a41.58,41.58,0,0,1-41.46-41.46L190.83,915.93c2.19-74.39,67.42-101.13,107-99.55l2219.79-59.56a77.52,77.52,0,0,1,79.57,79.43Z"/><path class="cls-11" d="M367.78,1911.29c2.19-86.63,1.38-853.78-4-920S470.26,912.57,642,905.12s1621.05-37,1658.36-39.77c83.88-6.27,101.24,109.36,92.85,360.38-6.3,188.6-16.75,499.27-21.56,642.14-1.43,42.54-39.13,76.3-85.28,76.41-348.75.89-1685.44,4.42-1774.42,6.86C409.58,1954,366.92,1945.64,367.78,1911.29Z"/><path class="cls-12" d="M2739.82,2351.09H65.55a60,60,0,0,1-59.83-59.83h0a60,60,0,0,1,59.83-59.82H2739.82a60,60,0,0,1,59.83,59.82h0A60,60,0,0,1,2739.82,2351.09Z"/><path class="cls-4" d="M1093.23,2002.58l1.3,6.65c1.19,6.11,17.92,5.75,29.88,5.75l1251.93,5c12.87,0,15.52-10.15,15.52-10.15,0-6.55-2.51-13.66-15.28-13.72l-1257.32-6C1105.38,1990.05,1091.84,1995.5,1093.23,2002.58Z"/><path class="cls-13" d="M1504.06,2010.28c-2.15-6.2-4.79-12.48-7.33-18.79l-1136.11-4.11c-20.29-.07-36.25,6.06-34.23,13.13l1.9,6.66c1.75,6.11,16.39,10.75,33.88,10.75H1507.23C1506,2015.24,1504.89,2012.67,1504.06,2010.28Z"/><path class="cls-14" d="M1530.9,2010.87a21.59,21.59,0,1,1-21.58-21.59A21.59,21.59,0,0,1,1530.9,2010.87Z"/><path class="cls-15" d="M2767.54,2629.87H1447.22V2365.61H2767.54C2739.28,2365.62,2739.28,2629.87,2767.54,2629.87Z"/><path class="cls-16" d="M1447.22,2563.75V2442.81c0-42.63,26.09-77.19,58.27-77.19H2804.42a3.39,3.39,0,0,0,3.38-3.38v-53a3.39,3.39,0,0,0-3.38-3.38H1420.64c-31.49,0-81.49,49.51-81.49,110.59v168.91c0,57.58,48.54,104.27,78.24,104.27h1387a3.39,3.39,0,0,0,3.38-3.38v-53a3.39,3.39,0,0,0-3.38-3.38H1497.14C1469.57,2629.87,1447.22,2600.27,1447.22,2563.75Z"/><path class="cls-17" d="M2739.68,2608.26H1559.2c-51.54,0-93.32-35.7-93.32-79.73V2474c0-48.77,46.28-88.31,103.36-88.31H2739.68C2711.82,2385.66,2711.82,2608.26,2739.68,2608.26Z"/><path class="cls-18" d="M2721.81,2423.21h-1238a3.38,3.38,0,1,1,0-6.75h1238a3.38,3.38,0,1,1,0,6.75Z"/><path class="cls-19" d="M2721.81,2462.44h-1238a3.38,3.38,0,1,1,0-6.76h1238a3.38,3.38,0,0,1,0,6.76Z"/><path class="cls-20" d="M2721.81,2501.66h-1238a3.38,3.38,0,1,1,0-6.75h1238a3.38,3.38,0,1,1,0,6.75Z"/><path class="cls-21" d="M2721.81,2540.89h-1238a3.38,3.38,0,1,1,0-6.76h1238a3.38,3.38,0,0,1,0,6.76Z"/><path class="cls-22" d="M2721.81,2580.11h-1238a3.38,3.38,0,1,1,0-6.75h1238a3.38,3.38,0,1,1,0,6.75Z"/><rect class="cls-23" x="1736.44" y="2050.22" width="1066.48" height="257.43" rx="10.75" transform="translate(4539.36 4357.88) rotate(180)"/><rect class="cls-15" x="2557.11" y="2079.81" width="125.29" height="198.26" transform="translate(5239.5 4357.88) rotate(180)"/><rect class="cls-15" x="2491.67" y="2079.81" width="47.01" height="198.26" transform="translate(5030.35 4357.88) rotate(180)"/><path class="cls-24" d="M1850.21,2312.27c.44-.17,237.93-416.06,270-455.19a24.85,24.85,0,0,1,22.21-8.93l66.28,7.9,77.87,168.46L2156.86,1949c12.84,88.78-153.82,220.72-211,268.86a13.12,13.12,0,0,0-1,19.12l22.82,23.89c-37.47,38-80.69,62.35-129.48,73.63Z"/><path class="cls-25" d="M1954.47,2247.94s14.56,4.7,19.49,17.67c2.36,6.21-.18,13.24-5.58,17.1-24,17.18-103.08,72.65-139.58,83.52a4.14,4.14,0,0,1-5.17-4.87c1.87-8.48,7.93-25.41,27.45-50.2l-1.75,3.54a5.07,5.07,0,0,0,7,6.69C1880.77,2307.61,1930.5,2277.44,1954.47,2247.94Z"/><path class="cls-26" d="M1942.71,2414.34c.4-.25,36-86.1,36.43-86.35,32.67-198.9,112.37-369.24,135.88-414.07a24.86,24.86,0,0,1,19.94-13.23l66.51-5.68,110.36,149.22-142.34-47.74c30.54,84.35-106,247.28-152.2,306a13.13,13.13,0,0,0,2.86,18.93l27.18,18.78c-29,44.77-66.41,77.39-111.9,98.31Z"/><path class="cls-27" d="M2031.79,2330.24s15.21,1.66,22.67,13.37c3.56,5.6,2.5,13-2,17.87-20,21.68-86.24,92-119.79,110a4.13,4.13,0,0,1-6-3.72c.11-8.69,2.62-26.5,16.72-54.72l-1,3.82a5.07,5.07,0,0,0,8.23,5.13C1971.69,2403.6,2014.29,2364,2031.79,2330.24Z"/><path class="cls-28" d="M2512.81,1863.58s60.17,89.49,65.11,130.32-16.64,54.94-79.62,60.14c-187.41,15.5-279.79-40.67-279.79-40.67-12.82-81.74-21.94-102.54-129-147,0,0,135.42,10.75,162.68.18S2512.81,1863.58,2512.81,1863.58Z"/><path class="cls-29" d="M2272.88,1362.18s41.9-49.58,86.46,11.25c8.07,11,39.06,1.93,50.42,25,5.87,11.91,18.54,18.67,31.59,16.27,32.51-6,85.65-6.5,111.89,44.44,20,38.89,4.56,61.65-15.46,74.62-14.7,9.53-20,28.88-11.06,44,8.53,14.48,10.14,34.09-11.88,57.69-49.35,52.89-147-33.56-147-33.56l-77.56-183.28Z"/><path class="cls-30" d="M2350.09,1851.73S2280,1785,2245.53,1740.82a93.74,93.74,0,0,1-15.87-84.38c15.74-53,43.73-108,46.28-116.55,3.91-13.11,82.47-12.56,82.47-12.56s154.6,100.34,215.34,270.3l-68.21,21.23s-40.37-67.72-80.25-110.77c0,0,69,91.17,71.44,128.49Z"/><path class="cls-31" d="M2216.59,1878.06l52.65-57.28,60.8,16.37s70.89,11,111.46,0l40.57-11,91.68-28.54,14.4,40.69a24.49,24.49,0,0,1-9,28.15c-7.93,5.64-17.23,11.83-23.15,14.43-12.08,5.28-278.14,1.66-278.14,1.66Z"/><path class="cls-32" d="M2304.42,1432.87l52.8,98.19c-3.48,21.43-57.47,22-65.81,9.24a12.59,12.59,0,0,1-1.65-4.33l-31.59-65.61c-1.36-6.4,16.18-27.95,21.95-31l21-11.18C2309.19,1423.86,2275.47,1423.52,2304.42,1432.87Z"/><path class="cls-33" d="M2197.56,1409.83s-6,33.17,20.11,75.35,52,40.27,65.23,25.23,29-40.09,21.8-82.16S2206.56,1367.52,2197.56,1409.83Z"/><path class="cls-34" d="M2273.14,1432.82s-42.22-55.46-74.64-7.11l.55,16.7s-42.15-2-37.58-40.82,39-65.39,86.69-52.12,75.58,28.39,81,61.51-21.66,27.71-21.66,27.71-10.33-22.85-22.81-24.41-8,16.51-8,16.51Z"/><path class="cls-35" d="M2282.82,1431.34s-21.87-28.38-2-34.27,19.17,27.81,17.87,40.35Z"/><path class="cls-36" d="M2390.86,1900.73l-.55,0-242.16-.27a10.84,10.84,0,0,1,0-21.68l242.16.27a10.84,10.84,0,0,1,.53,21.66Z"/><path class="cls-37" d="M1930.45,1680.87h201.68a38.42,38.42,0,0,1,34.76,22l93.23,197.69H2009.5a23.38,23.38,0,0,1-21.73-14.77l-72.29-182.94A16.1,16.1,0,0,1,1930.45,1680.87Z"/><path class="cls-38" d="M2072.53,1782.23c4.38,13.58,1.15,26.77-7.21,29.45s-18.66-6.13-23-19.71-1.15-26.77,7.21-29.46S2068.16,1768.65,2072.53,1782.23Z"/><path class="cls-39" d="M2073.27,537.18,2031.5,687.72a73.12,73.12,0,0,0,9.5,60c29.46,44.36,101.49,124.48,254.2,165.35,155.09,41.51,242.9-1.2,280.68-29.33a77.84,77.84,0,0,0,28.33-41l45.73-159.43Z"/><path class="cls-40" d="M2403.91,343.41,1969.52,465.09c-22.37,6.27-28.71,34.94-11.06,50,86.11,73.64,281.8,245.18,355.92,344.8a29,29,0,0,0,34.37,9.45l439.53-181.94a29,29,0,0,0,8.07-48.66c-85.28-74.86-302.28-262.31-372.83-294A28.85,28.85,0,0,0,2403.91,343.41Z"/><path class="cls-41" d="M2394.51,567.81s231.59,146.08,249.24,179.46-17.88,185.08-17.88,185.08c36.46,128.41,41.85,267.84-19.73,340.79,0,0-75.92-168.86-42-240s47-100.35,47-100.35S2640.8,771,2631.41,747.92C2631.41,747.92,2374.86,577.06,2394.51,567.81Z"/><path class="cls-42" d="M2028,505.38l222.32,219.3,55.58,54.83,13.89,13.7,6.94,6.82a41.09,41.09,0,0,0,7.18,5.55,41.59,41.59,0,0,0,35.14,3.81l148.05-49.59a2.23,2.23,0,1,1,1.43,4.22l-147.67,50.72a47.4,47.4,0,0,1-40-4.08,46.83,46.83,0,0,1-8.28-6.29l-7-6.81-14-13.6-56-54.4-224-217.6a4.6,4.6,0,1,1,6.41-6.6Z"/><path class="cls-42" d="M2608.92,1010.37l-.44.47-.51.61-1,1.23-2,2.69c-1.32,1.82-2.47,3.82-3.73,5.71l-3.29,6.07c-1,2.07-1.93,4.21-2.9,6.32a61.55,61.55,0,0,0-2.58,6.48c-.78,2.2-1.64,4.37-2.35,6.59l-1.89,6.77a66.1,66.1,0,0,0-1.73,6.82l-1.38,6.91a68.9,68.9,0,0,0-1.21,7c-.55,4.69-1.19,9.37-1.68,14.07l-.68,14.19c-.05,1.18-.15,2.36-.15,3.55l.08,3.55.17,7.12c-.08,9.52,1.22,19,2,28.46.16,2.38.55,4.73.93,7.09l1.11,7.06c.76,4.71,1.43,9.44,2.27,14.13,2.11,9.32,4,18.69,6.29,28l7.78,27.63,0,.09a1.6,1.6,0,0,1-3.07.9l-8.56-27.59c-2.53-9.3-4.7-18.7-7.07-28.06-1-4.72-1.78-9.49-2.67-14.23l-1.31-7.13c-.45-2.37-.91-4.75-1.13-7.16-1-9.62-2.6-19.2-2.77-28.91l-.36-7.28-.18-3.63c0-1.22,0-2.43.05-3.65l.33-14.59c.38-4.85.9-9.71,1.35-14.57.16-2.44.67-4.84,1.07-7.25l1.25-7.24c.34-2.43,1-4.79,1.62-7.18l1.8-7.15c.69-2.36,1.54-4.68,2.31-7a68.41,68.41,0,0,1,2.56-7c1-2.28,1.88-4.59,2.93-6.84l3.41-6.68c1.32-2.14,2.53-4.34,4-6.45l2.22-3.14,1.24-1.55.63-.78.78-.86a4.6,4.6,0,0,1,6.82,6.16l-.05.05Z"/><path class="cls-42" d="M2616,1070.14v9l.08,10.19.27,20.42.7,40.85,1.64,81.73a2.5,2.5,0,0,1-5,.17l-3.75-81.67-1.75-40.86-.79-20.44-.34-10.24-.13-5.17-.05-2.59c0-1.12.09-2.44.2-3.64a4.47,4.47,0,0,1,8.93.4Z"/><path class="cls-15" d="M1066.09,1148.36H132.24a73.37,73.37,0,0,1-73.05-66.49L.33,457.45A73.37,73.37,0,0,1,72,377.2l992.7-18.9a73.38,73.38,0,0,1,74.78,73.37V1075A73.37,73.37,0,0,1,1066.09,1148.36Z"/><path class="cls-43" d="M60,513.1l41.74,539.95a45.39,45.39,0,0,0,44.77,41.88l896.29,9.39a45.39,45.39,0,0,0,45.86-45.38V477.64a45.39,45.39,0,0,0-46.93-45.36l-938,32A45.38,45.38,0,0,0,60,513.1Z"/><path class="cls-43" d="M161.58,1006H968.15a42.68,42.68,0,0,0,42.68-43.14l-4.08-376.4-68.59,86.77-55.54,7.09s-49.74,1.77-63.09,3.54-74.85,16-74.85,16L685.37,730l-13.94,38.31-40.78,23.37-44.21,26H496.53L386,768.29H348.44L280.29,808l-63.8,74.07Z"/><path class="cls-44" d="M170.47,544.11,675.9,529a9.19,9.19,0,0,1,9.47,9.18v8.14a9.19,9.19,0,0,1-9.07,9.19l-505.43,7a9.19,9.19,0,0,1-9.32-9.19h0A9.18,9.18,0,0,1,170.47,544.11Z"/><rect class="cls-45" x="161.55" y="586.48" width="523.81" height="21.85" rx="9.19"/><path class="cls-46" d="M164.34,1006a17.19,17.19,0,0,1-15.8-23.89c58.25-137.28,123.72-212,200.13-228.47,52.64-11.35,93.35,9.56,129.27,28,38.23,19.63,71.24,36.59,116.5,19.5,34.14-12.9,52.85-36.62,72.66-61.73,24.69-31.31,50.23-63.68,104.29-72.85,27-4.59,48.18-1,66.83,2.13,22.57,3.8,40.4,6.81,65.09-5.12,29-14,54.42-42.18,75.49-83.68a17.18,17.18,0,1,1,30.63,15.55c-24.55,48.36-55.23,81.69-91.17,99.06-34.56,16.7-60.59,12.31-85.75,8.06-17.52-3-34.06-5.75-55.38-2.13-41,7-60.5,31.65-83.06,60.25-20.83,26.41-44.43,56.33-87.49,72.59-59.53,22.48-104.58-.66-144.33-21.08-33.79-17.35-65.71-33.75-106.35-25C292.11,801,233,871.06,180.16,995.55A17.2,17.2,0,0,1,164.34,1006Z"/><g class="cls-47"><path class="cls-48" d="M655.46,991.31c-1.93,6.12,20.38,15.44,33.51-9.6.46-12,7.76-63.42.59-73.19-38.2-52.08-112.25-117.35-112.25-117.35-12.52,12.35-2.21,24.48-2.21,24.48L611,853.07c-7.52,13.58-16.68,25-21,41.47a50.38,50.38,0,0,0,5,37.05c6.31,11.35,14.91,26.12,23,37.68C633.51,991.14,655.46,991.31,655.46,991.31Z"/><path class="cls-49" d="M626.74,877.35l32.74,27.75,10.28,27.63-29.19,32.38s-9.82-54.82-17.11-66.68S620,880.82,626.74,877.35Z"/><path class="cls-50" d="M1274,3035.06s8.27,46.82,12.33,93.17a31.94,31.94,0,0,1-30.55,34.6c-61.72,2.57-193.74,7.57-241.11,5.45a10.39,10.39,0,0,1-9.15-14.23,23.24,23.24,0,0,1,11.9-12.53l218.08-100.23Z"/><path class="cls-51" d="M1280.73,3007.55l-6.65,56s-38.2,17.78-64.29-2.24l15.82-62.41Z"/><path class="cls-52" d="M1275.74,1954.68c2.87,14.63,15.4,729.82-61,1050.32a10.89,10.89,0,0,0,6.38,12.65c11.73,4.79,34.72,11.73,62.26,12.65a18.73,18.73,0,0,0,18.59-13.44c21.85-74.36,126.57-446.93,140.23-802.84,15.26-397.69,0-13.54,0-13.54l-9-245.83Z"/><path class="cls-53" d="M1524.81,3059.49s13.17,23.64,25.91,86.44a19.48,19.48,0,0,1-17.14,23.33c-20.38,2-51.75,4.59-76.88,4.41a19.43,19.43,0,0,1-19.24-21.67c2.79-22.92,11.46-60.53,38.25-89.85Z"/><path class="cls-54" d="M1536.38,2987.46l-15.53,84.69s-15.35,11.42-45.72,3.14l7.41-91.12Z"/><path class="cls-55" d="M1578.32,1976.63c62.52,377.34-13.56,932.63-39.22,1041.31a17,17,0,0,1-13.69,12.87c-11.45,1.9-30.31,3.45-48.9-1.95a15.53,15.53,0,0,1-11.17-14.31c-3.44-87.86,2.75-627.28-55.51-840.46a48.47,48.47,0,0,0-18.67-26.72L1278.08,2067l-8.67-129.94Z"/><path class="cls-56" d="M1179.91,1261.65c187.38-3.1,394.12,49.19,394.12,49.19,55.85,325.9,9.77,701.8,9.77,701.8-145.06,38-308.7-23.26-308.7-23.26-24.11-136.22-136.6-519.58-136.6-519.58-91.55-11.36-167-37.77-229.07-72.69,47.37-54.92,69.7-124.79,79.4-166.09C1055.08,1251.6,1122.12,1262.6,1179.91,1261.65Z"/><path class="cls-57" d="M626.44,985.65c18.41-22.23,41.71-11.71,41.71-11.71C695.72,1090.41,840.3,1184.85,988.83,1231c-9.7,41.3-32,111.17-79.4,166.09C662.92,1258.51,626.44,985.65,626.44,985.65Z"/><path class="cls-58" d="M1502.16,1492.28,1574,1310.84s175,118.92,203.8,269.69c-33.07,2.44-93.24,11-152.14,40.78C1612.74,1550.12,1502.16,1492.28,1502.16,1492.28Z"/><path class="cls-59" d="M1369.71,1109.53l59.62,172.41a6.23,6.23,0,0,1-2.84,7.49c-16.25,9-74.8,35-145.36-9.78a29.26,29.26,0,0,1-13.47-20.9l-19.31-149.22Z"/><path class="cls-60" d="M1240,949.87s-65.46,123.23-57.07,173,89.53,46.2,160.38,5.77l49.51-133.07Z"/><path class="cls-61" d="M1340.16,1063.31a5.08,5.08,0,0,1-2.22-7.43c5.25-8,15.08-24.36,18.21-38.67,0,0,11.77-7.54-30-17.53s-104-25.49-117-61c-12.76-34.63,20.75-121.71,74.2-52.32a5.08,5.08,0,0,0,8,0c8.76-11.4,31.8-35.07,63.78-20.72,29.93,13.43,33.3,35.36,32.89,46.41a5,5,0,0,0,6,5.17c15.13-2.88,51.45-5.36,68.4,31.89,14,30.68,4.88,48.05-3.38,56.55a5.07,5.07,0,0,0,2.17,8.41c9.94,3,22.78,11.47,21.5,34.77-1.78,32.22-37.79,29.38-48,27.91a5.08,5.08,0,0,0-4.51,1.59c-8.79,9.73-48.4,51-91.27,56a5.13,5.13,0,0,1-5.38-6.77l18.56-53.94a5.1,5.1,0,0,0-2.76-6.32Z"/><path class="cls-62" d="M1332.7,1071s46.61-32,50-5-42,39-64.46,29Z"/><path class="cls-63" d="M1625.69,1621.31s61.17,276,5.76,431.12c67.93,31.5,55.38,25.56,55.38,25.56s134.39-392.66,91-497.46C1692.29,1571.46,1649.86,1594.44,1625.69,1621.31Z"/><path class="cls-64" d="M1631.45,2052.43s-35,45.31-32.21,63.35,3.47,25.4,3.47,25.4,17.59-12,16.48-27.4c-2.45,48.79-18.78,104.26-3.93,101.59s91.71-73.52,74.34-149C1650.16,2038.92,1639.11,2041.9,1631.45,2052.43Z"/></g></g></g></svg>